<?xml version="1.0" ?><!DOCTYPE svg  PUBLIC '-//W3C//DTD SVG 1.1//EN'  'http://www.w3.org/Graphics/SVG/1.1/DTD/svg11.dtd'><svg enable-background="new 0 0 91 91" height="91px" id="Layer_1" version="1.1" viewBox="0 0 91 91" width="91px" xml:space="preserve" xmlns="http://www.w3.org/2000/svg" xmlns:xlink="http://www.w3.org/1999/xlink"><g><path d="M42.762,19.428h-1.701v6.887c-12.799,0.88-22.949,11.545-22.949,24.563c0,13.592,11.059,24.65,24.65,24.65   c13.016,0,23.682-10.152,24.561-22.949h6.887v-1.701C74.209,33.536,60.102,19.428,42.762,19.428z M42.762,72.127   c-11.719,0-21.25-9.533-21.25-21.25c0-11.145,8.623-20.313,19.549-21.182v22.883h22.881C63.072,63.503,53.906,72.127,42.762,72.127   z M67.408,49.178H44.461V26.229v-3.35c14.115,0.848,25.449,12.184,26.297,26.299H67.408z"/></g></svg>